<svg xmlns="http://www.w3.org/2000/svg" viewBox="0 0 12 12"><defs><style>.a{fill:#010920;}.b{fill:#fff;}</style></defs><title>名称未設定-3</title><circle class="a" cx="6" cy="6" r="6"/><path class="b" d="M5.069 3.076a3.191 3.191 0 0 0-.663.676 6.216 6.216 0 0 0-.506.829 9.577 9.577 0 0 0-.408.918q-.183.476-.361.956t-.378.935a5.748 5.748 0 0 1-.463.854l.017.017q.263-.246.574-.552t.637-.637q.327-.331.65-.671t.616-.663q.293-.323.54-.616t.408-.522l.157-.229.234-.336.28-.378a4.371 4.371 0 0 1 .306-.357 2.154 2.154 0 0 1 .3-.259.47.47 0 0 1 .263-.1.109.109 0 0 1 .11.119.214.214 0 0 1-.042.115 1.3 1.3 0 0 1-.1.127 1.27 1.27 0 0 1-.123.123l-.117.102a3.179 3.179 0 0 0-.6.693 5.823 5.823 0 0 0-.421.8q-.183.425-.327.871t-.31.892q-.166.446-.374.875a4.086 4.086 0 0 1-.523.812l.017.017.858-.578q.467-.314.939-.676t.918-.769a7.545 7.545 0 0 0 .8-.854 5.064 5.064 0 0 0 .595-.931 2.905 2.905 0 0 0 .289-1 .323.323 0 0 1-.14-.149.475.475 0 0 1-.047-.208.292.292 0 0 1 .1-.225.345.345 0 0 1 .242-.089.315.315 0 0 1 .174.047.4.4 0 0 1 .119.119.452.452 0 0 1 .064.161.935.935 0 0 1 .017.174 1.771 1.771 0 0 1-.208.79 4.769 4.769 0 0 1-.54.833 9.075 9.075 0 0 1-.752.829q-.421.412-.85.769t-.829.654q-.4.3-.688.493l-.442.293q-.238.157-.463.314t-.418.308a3.138 3.138 0 0 0-.314.268l-.051-.068a5.161 5.161 0 0 0 .527-.922q.221-.5.408-1.028t.38-1.067a9.734 9.734 0 0 1 .429-1.02l-.017-.008q-.28.349-.671.79t-.841.914q-.451.472-.922.935t-.914.863l-.225.229-.174.2a.914.914 0 0 1-.149.136.28.28 0 0 1-.166.051q-.119 0-.119-.085a.14.14 0 0 1 .059-.1l.136-.11.149-.115a.4.4 0 0 0 .106-.115 5.845 5.845 0 0 0 .421-.892q.174-.467.327-.939t.321-.951a7.086 7.086 0 0 1 .4-.914 4.914 4.914 0 0 1 .575-.844 3.89 3.89 0 0 1 .825-.737l-.017-.017a5.037 5.037 0 0 1-.654.238q-.374.111-.769.242t-.778.285a3.78 3.78 0 0 0-.684.353 1.8 1.8 0 0 0-.484.459 1.013 1.013 0 0 0-.183.6.655.655 0 0 0 .17.484.6.6 0 0 0 .442.17.823.823 0 0 0 .357-.077.866.866 0 0 0 .276-.2.886.886 0 0 0 .174-.289.93.93 0 0 0 .059-.323v-.1l-.009-.108h.1l.013.1v.1a1.017 1.017 0 0 1-.283.72.884.884 0 0 1-.314.208 1.065 1.065 0 0 1-.4.072.866.866 0 0 1-.591-.2.736.736 0 0 1-.225-.592 1.062 1.062 0 0 1 .2-.659 1.934 1.934 0 0 1 .565-.489 4.681 4.681 0 0 1 .841-.382q.494-.17 1.033-.323.45-.127.727-.212t.434-.145a2.091 2.091 0 0 0 .234-.1.3.3 0 0 0 .1-.072zM8.655 7.65a3.3 3.3 0 0 1-.329.433 4.159 4.159 0 0 1-.444.433 3.173 3.173 0 0 1-.588.395 1.265 1.265 0 0 1-.577.15.532.532 0 0 1-.337-.106.372.372 0 0 1-.136-.313 1.1 1.1 0 0 1 .15-.533 2.2 2.2 0 0 1 .376-.5 2.042 2.042 0 0 1 .5-.367 1.1 1.1 0 0 1 .503-.142.62.62 0 0 1 .275.057.2.2 0 0 1 .117.2.167.167 0 0 1-.035.109.277.277 0 0 1-.087.071.446.446 0 0 1-.114.041 1.086 1.086 0 0 1-.112.019 1.163 1.163 0 0 0 .038-.112.424.424 0 0 0 .016-.117q0-.2-.19-.2a.608.608 0 0 0-.335.139 1.888 1.888 0 0 0-.365.351 2.277 2.277 0 0 0-.291.468 1.165 1.165 0 0 0-.12.5.445.445 0 0 0 .068.25.233.233 0 0 0 .21.1 1 1 0 0 0 .438-.125 2.849 2.849 0 0 0 .482-.31 4.038 4.038 0 0 0 .849-.92zM9.253 7.144l-.506.724-.335.49a3.365 3.365 0 0 0-.185.31.445.445 0 0 0-.057.185q0 .142.114.141a.544.544 0 0 0 .253-.079 2.158 2.158 0 0 0 .3-.2 3.7 3.7 0 0 0 .316-.283q.158-.158.3-.313t.245-.3a2.015 2.015 0 0 0 .155-.237l.044.027q-.065.109-.177.261t-.253.313l-.3.318a3.258 3.258 0 0 1-.321.283 1.911 1.911 0 0 1-.318.2.655.655 0 0 1-.286.076.273.273 0 0 1-.218-.082.268.268 0 0 1-.071-.18.648.648 0 0 1 .047-.242 2.178 2.178 0 0 1 .166-.313l.3-.449.438-.65zM9.569 6.132a.165.165 0 0 1 .125.052.191.191 0 0 1 0 .256.177.177 0 0 1-.25 0 .191.191 0 0 1 0-.256.165.165 0 0 1 .125-.052zM10.461 7.144l-.506.724-.335.49a3.365 3.365 0 0 0-.185.31.445.445 0 0 0-.057.185q0 .142.114.141a.544.544 0 0 0 .253-.079 2.158 2.158 0 0 0 .3-.2 3.7 3.7 0 0 0 .316-.283q.158-.158.3-.313t.245-.3a2.015 2.015 0 0 0 .155-.237l.044.027q-.065.109-.177.261t-.253.313l-.3.318a3.258 3.258 0 0 1-.321.283 1.911 1.911 0 0 1-.318.2.655.655 0 0 1-.286.076.273.273 0 0 1-.218-.082.268.268 0 0 1-.071-.18.648.648 0 0 1 .052-.242 2.178 2.178 0 0 1 .166-.313l.3-.449.438-.65zM10.777 6.132a.165.165 0 0 1 .125.052.191.191 0 0 1 0 .256.177.177 0 0 1-.25 0 .191.191 0 0 1 0-.256.165.165 0 0 1 .125-.052z"/></svg>