<svg xmlns="http://www.w3.org/2000/svg" viewBox="0 0 62.002 37.169"><defs><style>.a{fill:#010920;}</style></defs><title>名称未設定-2</title><path class="a" d="M26.346,14.242a19.385,19.385,0,0,0-4.027,4.1,37.758,37.758,0,0,0-3.072,5.033,58.174,58.174,0,0,0-2.478,5.575q-1.111,2.892-2.194,5.808t-2.3,5.679a34.917,34.917,0,0,1-2.813,5.188l.1.1q1.6-1.5,3.485-3.355T16.925,38.5q1.987-2.013,3.949-4.078T24.616,30.4q1.781-1.961,3.278-3.743t2.478-3.175q.31-.465.955-1.394t1.42-2.039q.774-1.109,1.7-2.3a26.552,26.552,0,0,1,1.858-2.142,13.086,13.086,0,0,1,1.807-1.575,2.854,2.854,0,0,1,1.6-.619.665.665,0,0,1,.671.723,1.3,1.3,0,0,1-.258.7,7.872,7.872,0,0,1-.594.774,7.712,7.712,0,0,1-.749.749q-.414.362-.723.619a19.311,19.311,0,0,0-3.614,4.207A35.372,35.372,0,0,0,31.9,26.063q-1.111,2.582-1.987,5.291t-1.884,5.42q-1.007,2.71-2.271,5.317a24.818,24.818,0,0,1-3.175,4.93l.1.1,5.214-3.51q2.838-1.909,5.7-4.1t5.575-4.672a45.83,45.83,0,0,0,4.878-5.188A30.759,30.759,0,0,0,47.666,24a17.648,17.648,0,0,0,1.755-6.092,1.964,1.964,0,0,1-.852-.9,2.888,2.888,0,0,1-.284-1.265,1.773,1.773,0,0,1,.594-1.368,2.1,2.1,0,0,1,1.471-.542,1.911,1.911,0,0,1,1.058.284,2.431,2.431,0,0,1,.723.723,2.746,2.746,0,0,1,.387.981,5.677,5.677,0,0,1,.1,1.058,10.76,10.76,0,0,1-1.265,4.8,28.971,28.971,0,0,1-3.278,5.059,55.123,55.123,0,0,1-4.569,5.033q-2.555,2.5-5.162,4.672t-5.033,3.975q-2.427,1.808-4.181,2.994-1.239.826-2.684,1.781T23.636,47.1q-1.368.956-2.555,1.858a19.062,19.062,0,0,0-1.91,1.626l-.31-.413a31.351,31.351,0,0,0,3.2-5.6q1.342-3.02,2.478-6.246t2.3-6.479a59.13,59.13,0,0,1,2.607-6.195l-.1-.052q-1.7,2.117-4.078,4.8t-5.111,5.549q-2.737,2.865-5.6,5.679T9,46.867q-.774.724-1.368,1.394T6.574,49.449a5.554,5.554,0,0,1-.9.826,1.7,1.7,0,0,1-1.007.31q-.724,0-.723-.516a.85.85,0,0,1,.361-.619q.361-.31.826-.671t.9-.7a2.415,2.415,0,0,0,.645-.7,35.507,35.507,0,0,0,2.555-5.42q1.057-2.838,1.987-5.7t1.962-5.73a43.044,43.044,0,0,1,2.452-5.549,29.852,29.852,0,0,1,3.459-5.136,23.629,23.629,0,0,1,5.033-4.465l-.1-.1a30.594,30.594,0,0,1-3.975,1.445q-2.272.672-4.672,1.471T10.652,19.92A22.961,22.961,0,0,0,6.5,22.063,10.9,10.9,0,0,0,3.554,24.85a6.156,6.156,0,0,0-1.11,3.639,3.978,3.978,0,0,0,1.032,2.943,3.628,3.628,0,0,0,2.684,1.032A5,5,0,0,0,8.329,32a5.263,5.263,0,0,0,1.678-1.239,5.382,5.382,0,0,0,1.058-1.755,5.65,5.65,0,0,0,.361-1.962q0-.31-.026-.619t-.077-.619h.619q.051.31.077.619t.026.619a6.177,6.177,0,0,1-1.729,4.336,5.371,5.371,0,0,1-1.91,1.265,6.469,6.469,0,0,1-2.4.439,5.258,5.258,0,0,1-3.588-1.239A4.472,4.472,0,0,1,1,28.283a6.453,6.453,0,0,1,1.265-4A11.746,11.746,0,0,1,5.7,21.314a28.436,28.436,0,0,1,5.111-2.323q2.943-1.032,6.246-1.962,2.736-.774,4.414-1.291t2.659-.878a12.7,12.7,0,0,0,1.42-.594,1.813,1.813,0,0,0,.594-.439Z" transform="translate(-0.999 -13.416)"/><path class="a" d="M48.126,42.023a20.052,20.052,0,0,1-2,2.628,25.262,25.262,0,0,1-2.694,2.628,19.272,19.272,0,0,1-3.57,2.4,7.682,7.682,0,0,1-3.5.909,3.23,3.23,0,0,1-2.05-.645,2.263,2.263,0,0,1-.826-1.9,6.693,6.693,0,0,1,.909-3.24,13.385,13.385,0,0,1,2.281-3.025,12.406,12.406,0,0,1,3.008-2.231,6.676,6.676,0,0,1,3.091-.859,3.766,3.766,0,0,1,1.669.347,1.233,1.233,0,0,1,.711,1.207,1.015,1.015,0,0,1-.215.661,1.68,1.68,0,0,1-.529.43,2.709,2.709,0,0,1-.694.248,6.6,6.6,0,0,1-.678.116,7.067,7.067,0,0,0,.231-.678,2.573,2.573,0,0,0,.1-.711q0-1.223-1.157-1.223a3.691,3.691,0,0,0-2.033.843,11.47,11.47,0,0,0-2.215,2.132A13.833,13.833,0,0,0,36.193,44.9a7.078,7.078,0,0,0-.727,3.008,2.7,2.7,0,0,0,.413,1.521,1.416,1.416,0,0,0,1.273.628,6.045,6.045,0,0,0,2.661-.76,17.307,17.307,0,0,0,2.926-1.884,24.531,24.531,0,0,0,5.157-5.587Z" transform="translate(-0.999 -13.416)"/><path class="a" d="M51.762,38.948q-1.818,2.612-3.074,4.4T46.655,46.32A20.441,20.441,0,0,0,45.531,48.2a2.7,2.7,0,0,0-.347,1.124q0,.86.694.859a3.3,3.3,0,0,0,1.537-.479,13.11,13.11,0,0,0,1.835-1.24,22.445,22.445,0,0,0,1.917-1.719q.958-.958,1.8-1.9t1.488-1.818a12.239,12.239,0,0,0,.942-1.438l.264.165q-.4.662-1.074,1.587t-1.537,1.9q-.86.975-1.818,1.934a19.787,19.787,0,0,1-1.95,1.719,11.61,11.61,0,0,1-1.934,1.223,3.978,3.978,0,0,1-1.735.463,1.657,1.657,0,0,1-1.322-.5A1.631,1.631,0,0,1,43.862,49a3.934,3.934,0,0,1,.314-1.471,13.228,13.228,0,0,1,1.008-1.9q.694-1.123,1.8-2.727t2.661-3.95Z" transform="translate(-0.999 -13.416)"/><path class="a" d="M53.68,32.8a1,1,0,0,1,.76.314,1.163,1.163,0,0,1,0,1.554,1.077,1.077,0,0,1-1.521,0,1.163,1.163,0,0,1,0-1.554A1,1,0,0,1,53.68,32.8Z" transform="translate(-0.999 -13.416)"/><path class="a" d="M59.1,38.948q-1.818,2.612-3.074,4.4T53.993,46.32A20.441,20.441,0,0,0,52.869,48.2a2.7,2.7,0,0,0-.347,1.124q0,.86.694.859a3.3,3.3,0,0,0,1.537-.479,13.11,13.11,0,0,0,1.835-1.24,22.445,22.445,0,0,0,1.917-1.719q.958-.958,1.8-1.9t1.488-1.818a12.239,12.239,0,0,0,.942-1.438l.264.165q-.4.662-1.074,1.587t-1.537,1.9q-.86.975-1.818,1.934a19.787,19.787,0,0,1-1.95,1.719,11.61,11.61,0,0,1-1.934,1.223,3.978,3.978,0,0,1-1.735.463,1.657,1.657,0,0,1-1.322-.5A1.631,1.631,0,0,1,51.2,49a3.934,3.934,0,0,1,.314-1.471,13.228,13.228,0,0,1,1.008-1.9q.694-1.123,1.8-2.727t2.661-3.95Z" transform="translate(-0.999 -13.416)"/><path class="a" d="M61.018,32.8a1,1,0,0,1,.76.314,1.163,1.163,0,0,1,0,1.554,1.077,1.077,0,0,1-1.521,0,1.163,1.163,0,0,1,0-1.554A1,1,0,0,1,61.018,32.8Z" transform="translate(-0.999 -13.416)"/></svg>